<svg xmlns="http://www.w3.org/2000/svg" xmlns:xlink="http://www.w3.org/1999/xlink" width="1024" zoomAndPan="magnify" viewBox="0 0 768 225" height="300" preserveAspectRatio="xMidYMid meet" version="1.0"><defs><g/></defs><g fill="#000000" fill-opacity="0.4"><g transform="translate(12.8615, 145.760142)"><g><path d="M 50.453125 -6.625 C 50.453125 -4.875 49.90625 -3.390625 48.8125 -2.171875 C 47.601562 -0.785156 45.972656 -0.09375 43.921875 -0.09375 L -0.90625 -0.09375 L 25.671875 -42.734375 L 8.25 -42.734375 C 6.195312 -42.734375 4.566406 -43.429688 3.359375 -44.828125 C 2.265625 -46.035156 1.71875 -47.515625 1.71875 -49.265625 C 1.71875 -51.023438 2.289062 -52.550781 3.4375 -53.84375 C 4.59375 -55.144531 6.195312 -55.796875 8.25 -55.796875 L 50.078125 -55.796875 L 23.5 -13.15625 L 43.921875 -13.15625 C 45.972656 -13.15625 47.570312 -12.503906 48.71875 -11.203125 C 49.875 -9.898438 50.453125 -8.375 50.453125 -6.625 Z M 50.453125 -6.625 "/></g></g></g><g fill="#000000" fill-opacity="0.4"><g transform="translate(64.308349, 145.760142)"><g><path d="M 47.453125 -15.703125 L 16.6875 -15.703125 C 16.9375 -13.523438 20.054688 -12.460938 26.046875 -12.515625 C 28.222656 -12.515625 30.003906 -11.820312 31.390625 -10.4375 C 32.597656 -9.101562 33.203125 -7.53125 33.203125 -5.71875 C 33.203125 -4.019531 32.628906 -2.566406 31.484375 -1.359375 C 30.148438 -0.0859375 28.335938 0.546875 26.046875 0.546875 C 19.023438 0.546875 13.398438 -1.8125 9.171875 -6.53125 C 5.234375 -10.945312 3.265625 -16.210938 3.265625 -22.328125 C 3.265625 -29.523438 5.304688 -35.269531 9.390625 -39.5625 C 13.472656 -43.851562 19.082031 -46 26.21875 -46 C 33.050781 -46 38.375 -43.488281 42.1875 -38.46875 C 45.632812 -33.875 47.359375 -28.035156 47.359375 -20.953125 Z M 33.390625 -27.3125 C 32.910156 -28.757812 32.210938 -29.96875 31.296875 -30.9375 C 29.785156 -32.445312 27.789062 -33.175781 25.3125 -33.125 C 20.957031 -33 18.175781 -31.0625 16.96875 -27.3125 Z M 33.390625 -27.3125 "/></g></g></g><g fill="#000000" fill-opacity="0.4"><g transform="translate(113.668286, 145.760142)"><g><path d="M 46.90625 -6.625 C 46.90625 -4.5625 46.253906 -2.957031 44.953125 -1.8125 C 43.660156 -0.664062 42.164062 -0.09375 40.46875 -0.09375 C 38.71875 -0.09375 37.234375 -0.632812 36.015625 -1.71875 C 34.628906 -2.925781 33.9375 -4.5625 33.9375 -6.625 L 33.9375 -28.3125 C 33.9375 -31.03125 32.484375 -32.390625 29.578125 -32.390625 L 18.421875 -32.484375 L 18.421875 -6.625 C 18.421875 -4.5625 17.769531 -2.957031 16.46875 -1.8125 C 15.164062 -0.664062 13.640625 -0.09375 11.890625 -0.09375 C 10.128906 -0.09375 8.644531 -0.632812 7.4375 -1.71875 C 6.050781 -2.925781 5.359375 -4.5625 5.359375 -6.625 L 5.359375 -45.546875 L 29.578125 -45.546875 C 34.597656 -45.546875 38.738281 -43.957031 42 -40.78125 C 45.269531 -37.601562 46.90625 -33.445312 46.90625 -28.3125 Z M 46.90625 -6.625 "/></g></g></g><g fill="#000000" fill-opacity="0.4"><g transform="translate(163.844837, 145.760142)"><g><path d="M 18.78125 -51.625 C 18.78125 -49.8125 18.144531 -48.253906 16.875 -46.953125 C 15.601562 -45.648438 14.0625 -45 12.25 -45 C 10.4375 -45 8.894531 -45.648438 7.625 -46.953125 C 6.351562 -48.253906 5.71875 -49.8125 5.71875 -51.625 C 5.71875 -53.4375 6.351562 -54.976562 7.625 -56.25 C 8.894531 -57.519531 10.4375 -58.15625 12.25 -58.15625 C 14.0625 -58.15625 15.601562 -57.519531 16.875 -56.25 C 18.144531 -54.976562 18.78125 -53.4375 18.78125 -51.625 Z M 19.140625 -3.8125 C 19.140625 0.175781 17.84375 3.957031 15.25 7.53125 C 12.519531 11.28125 9.097656 13.609375 4.984375 14.515625 C 4.441406 14.640625 3.898438 14.703125 3.359375 14.703125 C 1.484375 14.703125 -0.0234375 14.035156 -1.171875 12.703125 C -2.328125 11.367188 -2.90625 9.796875 -2.90625 7.984375 C -2.90625 4.660156 -1.210938 2.601562 2.171875 1.8125 C 3.023438 1.632812 3.890625 0.957031 4.765625 -0.21875 C 5.640625 -1.40625 6.078125 -2.601562 6.078125 -3.8125 L 6.078125 -38.375 C 6.078125 -40.375 6.726562 -41.945312 8.03125 -43.09375 C 9.332031 -44.25 10.859375 -44.828125 12.609375 -44.828125 C 14.367188 -44.828125 15.894531 -44.25 17.1875 -43.09375 C 18.488281 -41.945312 19.140625 -40.375 19.140625 -38.375 Z M 19.140625 -3.8125 "/></g></g></g><g fill="#000000" fill-opacity="0.4"><g transform="translate(186.256437, 145.760142)"><g><path d="M 45.90625 -0.1875 L 21.6875 -0.1875 C 16.601562 -0.1875 12.425781 -1.757812 9.15625 -4.90625 C 5.894531 -8.050781 4.265625 -12.191406 4.265625 -17.328125 L 4.265625 -39.015625 C 4.265625 -41.066406 4.925781 -42.664062 6.25 -43.8125 C 7.582031 -44.96875 9.097656 -45.546875 10.796875 -45.546875 C 12.546875 -45.546875 14.070312 -44.96875 15.375 -43.8125 C 16.675781 -42.664062 17.328125 -41.066406 17.328125 -39.015625 L 17.328125 -17.328125 C 17.328125 -14.609375 18.78125 -13.25 21.6875 -13.25 L 32.84375 -13.25 L 32.84375 -39.015625 C 32.84375 -41.066406 33.539062 -42.703125 34.9375 -43.921875 C 36.144531 -45.003906 37.625 -45.546875 39.375 -45.546875 C 41.132812 -45.546875 42.660156 -44.96875 43.953125 -43.8125 C 45.253906 -42.664062 45.90625 -41.066406 45.90625 -39.015625 Z M 45.90625 -0.1875 "/></g></g></g><g fill="#000000" fill-opacity="0.4"><g transform="translate(235.979307, 145.760142)"><g/></g></g><g fill="#000000" fill-opacity="0.4"><g transform="translate(258.935311, 145.760142)"><g><path d="M 57.078125 -22.5 C 57.078125 -16.144531 54.398438 -10.726562 49.046875 -6.25 C 43.691406 -1.78125 37.535156 0.453125 30.578125 0.453125 C 22.535156 0.453125 15.835938 -2.28125 10.484375 -7.75 C 5.128906 -13.226562 2.453125 -19.960938 2.453125 -27.953125 C 2.453125 -36.597656 4.976562 -43.613281 10.03125 -49 C 15.082031 -54.382812 21.929688 -57.078125 30.578125 -57.078125 C 39.285156 -57.078125 46.300781 -54.171875 51.625 -48.359375 C 52.832031 -47.023438 53.4375 -45.570312 53.4375 -44 C 53.4375 -42.25 52.753906 -40.707031 51.390625 -39.375 C 50.035156 -38.039062 48.484375 -37.375 46.734375 -37.375 C 44.910156 -37.375 43.335938 -38.101562 42.015625 -39.5625 C 39.285156 -42.519531 35.472656 -44 30.578125 -44 C 20.535156 -44 15.515625 -38.648438 15.515625 -27.953125 C 15.515625 -23.472656 16.921875 -19.796875 19.734375 -16.921875 C 22.546875 -14.046875 26.160156 -12.609375 30.578125 -12.609375 C 35.960938 -12.609375 39.953125 -14.546875 42.546875 -18.421875 L 33.578125 -18.421875 C 31.515625 -18.421875 29.90625 -19.082031 28.75 -20.40625 C 27.601562 -21.738281 27.03125 -23.253906 27.03125 -24.953125 C 27.03125 -26.703125 27.601562 -28.226562 28.75 -29.53125 C 29.90625 -30.832031 31.515625 -31.484375 33.578125 -31.484375 L 57.078125 -31.484375 Z M 57.078125 -22.5 "/></g></g></g><g fill="#000000" fill-opacity="0.4"><g transform="translate(317.368767, 145.760142)"><g><path d="M 43.828125 0 L 19.59375 0 C 14.457031 0 10.34375 -1.390625 7.25 -4.171875 C 4.164062 -6.953125 2.625 -10.914062 2.625 -16.0625 C 2.625 -21.625 4.5625 -25.765625 8.4375 -28.484375 C 11.820312 -30.847656 16.359375 -32 22.046875 -31.9375 C 24.410156 -31.875 26.601562 -31.238281 28.625 -30.03125 C 30.65625 -28.820312 31.972656 -27.191406 32.578125 -25.140625 C 32.992188 -25.984375 33.203125 -26.796875 33.203125 -27.578125 C 33.203125 -29.640625 31.992188 -31.335938 29.578125 -32.671875 C 27.523438 -33.753906 25.378906 -34.296875 23.140625 -34.296875 C 21.140625 -34.296875 19.550781 -34.898438 18.375 -36.109375 C 17.195312 -37.316406 16.609375 -38.738281 16.609375 -40.375 C 16.609375 -42.070312 17.226562 -43.523438 18.46875 -44.734375 C 19.707031 -45.941406 21.472656 -46.546875 23.765625 -46.546875 C 29.273438 -46.546875 33.875 -45.1875 37.5625 -42.46875 C 41.738281 -39.320312 43.828125 -34.992188 43.828125 -29.484375 Z M 30.84375 -15.609375 C 30.84375 -17.117188 29.878906 -18.359375 27.953125 -19.328125 C 26.253906 -20.234375 24.285156 -20.6875 22.046875 -20.6875 C 17.753906 -20.6875 15.609375 -19.296875 15.609375 -16.515625 C 15.609375 -15.367188 15.878906 -14.550781 16.421875 -14.0625 C 17.210938 -13.394531 18.695312 -13.0625 20.875 -13.0625 L 30.84375 -13.0625 Z M 30.84375 -15.609375 "/></g></g></g><g fill="#000000" fill-opacity="0.4"><g transform="translate(364.460322, 145.760142)"><g><path d="M 75.484375 -6.625 C 75.484375 -4.5625 74.832031 -2.957031 73.53125 -1.8125 C 72.238281 -0.664062 70.710938 -0.09375 68.953125 -0.09375 C 67.265625 -0.09375 65.753906 -0.664062 64.421875 -1.8125 C 63.085938 -2.957031 62.421875 -4.5625 62.421875 -6.625 L 62.421875 -28.3125 C 62.421875 -31.03125 61 -32.390625 58.15625 -32.390625 L 46.90625 -32.390625 L 46.90625 -6.625 C 46.90625 -4.5625 46.253906 -2.957031 44.953125 -1.8125 C 43.660156 -0.664062 42.164062 -0.09375 40.46875 -0.09375 C 38.71875 -0.09375 37.234375 -0.632812 36.015625 -1.71875 C 34.628906 -2.925781 33.9375 -4.5625 33.9375 -6.625 L 33.9375 -28.3125 C 33.9375 -31.03125 32.484375 -32.390625 29.578125 -32.390625 L 18.421875 -32.390625 L 18.421875 -6.625 C 18.421875 -4.5625 17.769531 -2.957031 16.46875 -1.8125 C 15.164062 -0.664062 13.640625 -0.09375 11.890625 -0.09375 C 10.128906 -0.09375 8.644531 -0.632812 7.4375 -1.71875 C 6.050781 -2.925781 5.359375 -4.5625 5.359375 -6.625 L 5.359375 -45.546875 L 58.15625 -45.546875 C 63.175781 -45.546875 67.316406 -43.957031 70.578125 -40.78125 C 73.847656 -37.601562 75.484375 -33.445312 75.484375 -28.3125 Z M 75.484375 -6.625 "/></g></g></g><g fill="#000000" fill-opacity="0.4"><g transform="translate(443.12771, 145.760142)"><g><path d="M 47.453125 -15.703125 L 16.6875 -15.703125 C 16.9375 -13.523438 20.054688 -12.460938 26.046875 -12.515625 C 28.222656 -12.515625 30.003906 -11.820312 31.390625 -10.4375 C 32.597656 -9.101562 33.203125 -7.53125 33.203125 -5.71875 C 33.203125 -4.019531 32.628906 -2.566406 31.484375 -1.359375 C 30.148438 -0.0859375 28.335938 0.546875 26.046875 0.546875 C 19.023438 0.546875 13.398438 -1.8125 9.171875 -6.53125 C 5.234375 -10.945312 3.265625 -16.210938 3.265625 -22.328125 C 3.265625 -29.523438 5.304688 -35.269531 9.390625 -39.5625 C 13.472656 -43.851562 19.082031 -46 26.21875 -46 C 33.050781 -46 38.375 -43.488281 42.1875 -38.46875 C 45.632812 -33.875 47.359375 -28.035156 47.359375 -20.953125 Z M 33.390625 -27.3125 C 32.910156 -28.757812 32.210938 -29.96875 31.296875 -30.9375 C 29.785156 -32.445312 27.789062 -33.175781 25.3125 -33.125 C 20.957031 -33 18.175781 -31.0625 16.96875 -27.3125 Z M 33.390625 -27.3125 "/></g></g></g><g fill="#000000" fill-opacity="0.4"><g transform="translate(492.487656, 145.760142)"><g><path d="M 90.28125 -50.453125 C 90.28125 -49.722656 90.160156 -49.023438 89.921875 -48.359375 L 75.3125 -6.4375 C 74.519531 -4.257812 73.15625 -2.597656 71.21875 -1.453125 C 69.289062 -0.304688 67.144531 0.265625 64.78125 0.265625 C 62.488281 0.265625 60.375 -0.304688 58.4375 -1.453125 C 56.5 -2.597656 55.164062 -4.257812 54.4375 -6.4375 L 51.53125 -14.875 C 50.875 -16.75 49.125 -22.523438 46.28125 -32.203125 C 45.425781 -29.179688 43.578125 -23.226562 40.734375 -14.34375 L 38.015625 -6.4375 C 37.285156 -4.257812 35.953125 -2.597656 34.015625 -1.453125 C 32.085938 -0.304688 29.941406 0.265625 27.578125 0.265625 C 25.285156 0.265625 23.203125 -0.273438 21.328125 -1.359375 C 19.265625 -2.566406 17.875 -4.257812 17.15625 -6.4375 L 2.625 -48.359375 C 2.445312 -48.898438 2.359375 -49.472656 2.359375 -50.078125 C 2.359375 -51.953125 3.113281 -53.644531 4.625 -55.15625 C 6.132812 -56.675781 7.769531 -57.4375 9.53125 -57.4375 C 12.007812 -57.4375 13.820312 -55.863281 14.96875 -52.71875 L 21.953125 -32.9375 C 24.015625 -27.125 25.921875 -20.984375 27.671875 -14.515625 C 28.640625 -17.898438 30.546875 -23.953125 33.390625 -32.671875 L 39.65625 -50.546875 C 41.039062 -54.710938 43.304688 -56.796875 46.453125 -56.796875 C 49.359375 -56.796875 51.535156 -54.710938 52.984375 -50.546875 L 59.609375 -31.84375 C 60.703125 -27.976562 62.488281 -22.203125 64.96875 -14.515625 C 66.113281 -18.503906 67.957031 -24.460938 70.5 -32.390625 L 77.671875 -52.71875 C 78.703125 -55.738281 80.578125 -57.25 83.296875 -57.25 C 85.109375 -57.25 86.722656 -56.582031 88.140625 -55.25 C 89.566406 -53.925781 90.28125 -52.328125 90.28125 -50.453125 Z M 90.28125 -50.453125 "/></g></g></g><g fill="#000000" fill-opacity="0.4"><g transform="translate(584.130191, 145.760142)"><g><path d="M 48.09375 -22.5 C 48.09375 -15.726562 46.019531 -10.191406 41.875 -5.890625 C 37.726562 -1.597656 32.238281 0.546875 25.40625 0.546875 C 18.382812 0.546875 12.816406 -1.660156 8.703125 -6.078125 C 4.773438 -10.253906 2.8125 -15.726562 2.8125 -22.5 C 2.8125 -29.03125 4.925781 -34.519531 9.15625 -38.96875 C 13.394531 -43.414062 18.8125 -45.640625 25.40625 -45.640625 C 32.0625 -45.640625 37.503906 -43.414062 41.734375 -38.96875 C 45.972656 -34.519531 48.09375 -29.03125 48.09375 -22.5 Z M 35.03125 -22.5 C 35.03125 -25.582031 34.148438 -28.046875 32.390625 -29.890625 C 30.640625 -31.742188 28.3125 -32.671875 25.40625 -32.671875 C 22.5625 -32.671875 20.242188 -31.726562 18.453125 -29.84375 C 16.671875 -27.96875 15.78125 -25.519531 15.78125 -22.5 C 15.78125 -15.789062 18.988281 -12.4375 25.40625 -12.4375 C 31.820312 -12.4375 35.03125 -15.789062 35.03125 -22.5 Z M 35.03125 -22.5 "/></g></g><g transform="translate(634.941907, 145.760142)"><g><path d="M 36.109375 -38.828125 C 36.109375 -37.140625 35.546875 -35.675781 34.421875 -34.4375 C 33.304688 -33.195312 31.875 -32.578125 30.125 -32.578125 C 29.882812 -32.578125 29.488281 -32.617188 28.9375 -32.703125 C 28.394531 -32.796875 28.003906 -32.84375 27.765625 -32.84375 C 25.585938 -32.84375 23.410156 -32.300781 21.234375 -31.21875 C 18.867188 -30 17.6875 -28.578125 17.6875 -26.953125 L 17.6875 -6.625 C 17.6875 -4.5625 17.035156 -2.957031 15.734375 -1.8125 C 14.441406 -0.664062 12.914062 -0.09375 11.15625 -0.09375 C 9.40625 -0.09375 7.925781 -0.632812 6.71875 -1.71875 C 5.320312 -2.925781 4.625 -4.5625 4.625 -6.625 L 4.625 -38.46875 C 4.625 -40.46875 5.351562 -42.070312 6.8125 -43.28125 C 8.070312 -44.425781 9.613281 -45 11.4375 -45 C 14.394531 -45 16.175781 -43.367188 16.78125 -40.109375 C 17.6875 -41.921875 19.140625 -43.367188 21.140625 -44.453125 C 23.140625 -45.546875 25.164062 -46.09375 27.21875 -46.09375 C 28.425781 -46.09375 29.609375 -45.941406 30.765625 -45.640625 C 34.328125 -44.734375 36.109375 -42.460938 36.109375 -38.828125 Z M 36.109375 -38.828125 "/></g></g></g><g fill="#000000" fill-opacity="0.4"><g transform="translate(671.780421, 145.760142)"><g><path d="M 44.28125 -6.53125 C 44.28125 -4.71875 43.597656 -3.175781 42.234375 -1.90625 C 40.878906 -0.632812 39.289062 0 37.46875 0 C 35.175781 0 33.394531 -1.054688 32.125 -3.171875 L 21.5 -20.5 C 19.257812 -18.269531 17.503906 -16.609375 16.234375 -15.515625 L 16.234375 -6.625 C 16.234375 -4.5625 15.597656 -2.957031 14.328125 -1.8125 C 13.066406 -0.664062 11.554688 -0.09375 9.796875 -0.09375 C 7.984375 -0.09375 6.441406 -0.664062 5.171875 -1.8125 C 3.898438 -2.957031 3.265625 -4.5625 3.265625 -6.625 L 3.265625 -49.453125 C 3.265625 -51.503906 3.898438 -53.101562 5.171875 -54.25 C 6.441406 -55.40625 7.984375 -55.984375 9.796875 -55.984375 C 11.554688 -55.984375 13.066406 -55.40625 14.328125 -54.25 C 15.597656 -53.101562 16.234375 -51.503906 16.234375 -49.453125 L 16.234375 -32.296875 C 18.054688 -34.898438 19.875 -37.109375 21.6875 -38.921875 L 24.59375 -41.734375 C 25.738281 -42.890625 27.28125 -43.46875 29.21875 -43.46875 C 30.789062 -43.46875 32.238281 -42.800781 33.5625 -41.46875 C 34.894531 -40.132812 35.5625 -38.59375 35.5625 -36.84375 C 35.5625 -35.144531 34.867188 -33.628906 33.484375 -32.296875 C 32.515625 -31.328125 31.726562 -30.484375 31.125 -29.765625 L 43.1875 -10.078125 C 43.914062 -8.921875 44.28125 -7.738281 44.28125 -6.53125 Z M 44.28125 -6.53125 "/></g></g></g><g fill="#000000" fill-opacity="0.4"><g transform="translate(717.329468, 145.760142)"><g><path d="M 41.921875 -38.375 C 41.921875 -36.5625 41.316406 -34.972656 40.109375 -33.609375 C 38.898438 -32.253906 37.414062 -31.578125 35.65625 -31.578125 C 34.875 -31.578125 34.03125 -31.726562 33.125 -32.03125 C 29.488281 -33.300781 26.460938 -33.9375 24.046875 -33.9375 C 18.835938 -33.9375 16.234375 -33.207031 16.234375 -31.75 C 16.234375 -30.726562 17.550781 -30.035156 20.1875 -29.671875 C 22.820312 -29.304688 24.800781 -28.972656 26.125 -28.671875 C 31.269531 -27.523438 34.84375 -26.316406 36.84375 -25.046875 C 40.039062 -22.921875 41.640625 -19.710938 41.640625 -15.421875 C 41.640625 -10.941406 40.160156 -7.34375 37.203125 -4.625 C 33.390625 -1.238281 27.796875 0.453125 20.421875 0.453125 C 16.671875 0.453125 12.585938 -0.421875 8.171875 -2.171875 C 5.265625 -3.265625 3.8125 -5.234375 3.8125 -8.078125 C 3.8125 -9.890625 4.414062 -11.472656 5.625 -12.828125 C 6.832031 -14.191406 8.34375 -14.875 10.15625 -14.875 C 10.882812 -14.875 11.703125 -14.722656 12.609375 -14.421875 C 16.242188 -13.210938 19.269531 -12.609375 21.6875 -12.609375 C 26.882812 -12.609375 29.484375 -13.304688 29.484375 -14.703125 C 29.484375 -15.722656 28.15625 -16.414062 25.5 -16.78125 C 18.0625 -17.875 12.859375 -19.238281 9.890625 -20.875 C 6.015625 -22.925781 4.078125 -26.3125 4.078125 -31.03125 C 4.078125 -36.414062 6.226562 -40.5 10.53125 -43.28125 C 14.21875 -45.695312 19.144531 -46.90625 25.3125 -46.90625 C 29.0625 -46.90625 33.144531 -46.03125 37.5625 -44.28125 C 40.46875 -43.1875 41.921875 -41.21875 41.921875 -38.375 Z M 41.921875 -38.375 "/></g></g></g><g fill="#ffffff" fill-opacity="1"><g transform="translate(8.851533, 141.750172)"><g><path d="M 50.453125 -6.625 C 50.453125 -4.875 49.90625 -3.390625 48.8125 -2.171875 C 47.601562 -0.785156 45.972656 -0.09375 43.921875 -0.09375 L -0.90625 -0.09375 L 25.671875 -42.734375 L 8.25 -42.734375 C 6.195312 -42.734375 4.566406 -43.429688 3.359375 -44.828125 C 2.265625 -46.035156 1.71875 -47.515625 1.71875 -49.265625 C 1.71875 -51.023438 2.289062 -52.550781 3.4375 -53.84375 C 4.59375 -55.144531 6.195312 -55.796875 8.25 -55.796875 L 50.078125 -55.796875 L 23.5 -13.15625 L 43.921875 -13.15625 C 45.972656 -13.15625 47.570312 -12.503906 48.71875 -11.203125 C 49.875 -9.898438 50.453125 -8.375 50.453125 -6.625 Z M 50.453125 -6.625 "/></g></g></g><g fill="#ffffff" fill-opacity="1"><g transform="translate(60.298381, 141.750172)"><g><path d="M 47.453125 -15.703125 L 16.6875 -15.703125 C 16.9375 -13.523438 20.054688 -12.460938 26.046875 -12.515625 C 28.222656 -12.515625 30.003906 -11.820312 31.390625 -10.4375 C 32.597656 -9.101562 33.203125 -7.53125 33.203125 -5.71875 C 33.203125 -4.019531 32.628906 -2.566406 31.484375 -1.359375 C 30.148438 -0.0859375 28.335938 0.546875 26.046875 0.546875 C 19.023438 0.546875 13.398438 -1.8125 9.171875 -6.53125 C 5.234375 -10.945312 3.265625 -16.210938 3.265625 -22.328125 C 3.265625 -29.523438 5.304688 -35.269531 9.390625 -39.5625 C 13.472656 -43.851562 19.082031 -46 26.21875 -46 C 33.050781 -46 38.375 -43.488281 42.1875 -38.46875 C 45.632812 -33.875 47.359375 -28.035156 47.359375 -20.953125 Z M 33.390625 -27.3125 C 32.910156 -28.757812 32.210938 -29.96875 31.296875 -30.9375 C 29.785156 -32.445312 27.789062 -33.175781 25.3125 -33.125 C 20.957031 -33 18.175781 -31.0625 16.96875 -27.3125 Z M 33.390625 -27.3125 "/></g></g></g><g fill="#ffffff" fill-opacity="1"><g transform="translate(109.658318, 141.750172)"><g><path d="M 46.90625 -6.625 C 46.90625 -4.5625 46.253906 -2.957031 44.953125 -1.8125 C 43.660156 -0.664062 42.164062 -0.09375 40.46875 -0.09375 C 38.71875 -0.09375 37.234375 -0.632812 36.015625 -1.71875 C 34.628906 -2.925781 33.9375 -4.5625 33.9375 -6.625 L 33.9375 -28.3125 C 33.9375 -31.03125 32.484375 -32.390625 29.578125 -32.390625 L 18.421875 -32.484375 L 18.421875 -6.625 C 18.421875 -4.5625 17.769531 -2.957031 16.46875 -1.8125 C 15.164062 -0.664062 13.640625 -0.09375 11.890625 -0.09375 C 10.128906 -0.09375 8.644531 -0.632812 7.4375 -1.71875 C 6.050781 -2.925781 5.359375 -4.5625 5.359375 -6.625 L 5.359375 -45.546875 L 29.578125 -45.546875 C 34.597656 -45.546875 38.738281 -43.957031 42 -40.78125 C 45.269531 -37.601562 46.90625 -33.445312 46.90625 -28.3125 Z M 46.90625 -6.625 "/></g></g></g><g fill="#ffffff" fill-opacity="1"><g transform="translate(159.83487, 141.750172)"><g><path d="M 18.78125 -51.625 C 18.78125 -49.8125 18.144531 -48.253906 16.875 -46.953125 C 15.601562 -45.648438 14.0625 -45 12.25 -45 C 10.4375 -45 8.894531 -45.648438 7.625 -46.953125 C 6.351562 -48.253906 5.71875 -49.8125 5.71875 -51.625 C 5.71875 -53.4375 6.351562 -54.976562 7.625 -56.25 C 8.894531 -57.519531 10.4375 -58.15625 12.25 -58.15625 C 14.0625 -58.15625 15.601562 -57.519531 16.875 -56.25 C 18.144531 -54.976562 18.78125 -53.4375 18.78125 -51.625 Z M 19.140625 -3.8125 C 19.140625 0.175781 17.84375 3.957031 15.25 7.53125 C 12.519531 11.28125 9.097656 13.609375 4.984375 14.515625 C 4.441406 14.640625 3.898438 14.703125 3.359375 14.703125 C 1.484375 14.703125 -0.0234375 14.035156 -1.171875 12.703125 C -2.328125 11.367188 -2.90625 9.796875 -2.90625 7.984375 C -2.90625 4.660156 -1.210938 2.601562 2.171875 1.8125 C 3.023438 1.632812 3.890625 0.957031 4.765625 -0.21875 C 5.640625 -1.40625 6.078125 -2.601562 6.078125 -3.8125 L 6.078125 -38.375 C 6.078125 -40.375 6.726562 -41.945312 8.03125 -43.09375 C 9.332031 -44.25 10.859375 -44.828125 12.609375 -44.828125 C 14.367188 -44.828125 15.894531 -44.25 17.1875 -43.09375 C 18.488281 -41.945312 19.140625 -40.375 19.140625 -38.375 Z M 19.140625 -3.8125 "/></g></g></g><g fill="#ffffff" fill-opacity="1"><g transform="translate(182.24647, 141.750172)"><g><path d="M 45.90625 -0.1875 L 21.6875 -0.1875 C 16.601562 -0.1875 12.425781 -1.757812 9.15625 -4.90625 C 5.894531 -8.050781 4.265625 -12.191406 4.265625 -17.328125 L 4.265625 -39.015625 C 4.265625 -41.066406 4.925781 -42.664062 6.25 -43.8125 C 7.582031 -44.96875 9.097656 -45.546875 10.796875 -45.546875 C 12.546875 -45.546875 14.070312 -44.96875 15.375 -43.8125 C 16.675781 -42.664062 17.328125 -41.066406 17.328125 -39.015625 L 17.328125 -17.328125 C 17.328125 -14.609375 18.78125 -13.25 21.6875 -13.25 L 32.84375 -13.25 L 32.84375 -39.015625 C 32.84375 -41.066406 33.539062 -42.703125 34.9375 -43.921875 C 36.144531 -45.003906 37.625 -45.546875 39.375 -45.546875 C 41.132812 -45.546875 42.660156 -44.96875 43.953125 -43.8125 C 45.253906 -42.664062 45.90625 -41.066406 45.90625 -39.015625 Z M 45.90625 -0.1875 "/></g></g></g><g fill="#ffffff" fill-opacity="1"><g transform="translate(231.969339, 141.750172)"><g/></g></g><g fill="#ffffff" fill-opacity="1"><g transform="translate(254.925344, 141.750172)"><g><path d="M 57.078125 -22.5 C 57.078125 -16.144531 54.398438 -10.726562 49.046875 -6.25 C 43.691406 -1.78125 37.535156 0.453125 30.578125 0.453125 C 22.535156 0.453125 15.835938 -2.28125 10.484375 -7.75 C 5.128906 -13.226562 2.453125 -19.960938 2.453125 -27.953125 C 2.453125 -36.597656 4.976562 -43.613281 10.03125 -49 C 15.082031 -54.382812 21.929688 -57.078125 30.578125 -57.078125 C 39.285156 -57.078125 46.300781 -54.171875 51.625 -48.359375 C 52.832031 -47.023438 53.4375 -45.570312 53.4375 -44 C 53.4375 -42.25 52.753906 -40.707031 51.390625 -39.375 C 50.035156 -38.039062 48.484375 -37.375 46.734375 -37.375 C 44.910156 -37.375 43.335938 -38.101562 42.015625 -39.5625 C 39.285156 -42.519531 35.472656 -44 30.578125 -44 C 20.535156 -44 15.515625 -38.648438 15.515625 -27.953125 C 15.515625 -23.472656 16.921875 -19.796875 19.734375 -16.921875 C 22.546875 -14.046875 26.160156 -12.609375 30.578125 -12.609375 C 35.960938 -12.609375 39.953125 -14.546875 42.546875 -18.421875 L 33.578125 -18.421875 C 31.515625 -18.421875 29.90625 -19.082031 28.75 -20.40625 C 27.601562 -21.738281 27.03125 -23.253906 27.03125 -24.953125 C 27.03125 -26.703125 27.601562 -28.226562 28.75 -29.53125 C 29.90625 -30.832031 31.515625 -31.484375 33.578125 -31.484375 L 57.078125 -31.484375 Z M 57.078125 -22.5 "/></g></g></g><g fill="#ffffff" fill-opacity="1"><g transform="translate(313.3588, 141.750172)"><g><path d="M 43.828125 0 L 19.59375 0 C 14.457031 0 10.34375 -1.390625 7.25 -4.171875 C 4.164062 -6.953125 2.625 -10.914062 2.625 -16.0625 C 2.625 -21.625 4.5625 -25.765625 8.4375 -28.484375 C 11.820312 -30.847656 16.359375 -32 22.046875 -31.9375 C 24.410156 -31.875 26.601562 -31.238281 28.625 -30.03125 C 30.65625 -28.820312 31.972656 -27.191406 32.578125 -25.140625 C 32.992188 -25.984375 33.203125 -26.796875 33.203125 -27.578125 C 33.203125 -29.640625 31.992188 -31.335938 29.578125 -32.671875 C 27.523438 -33.753906 25.378906 -34.296875 23.140625 -34.296875 C 21.140625 -34.296875 19.550781 -34.898438 18.375 -36.109375 C 17.195312 -37.316406 16.609375 -38.738281 16.609375 -40.375 C 16.609375 -42.070312 17.226562 -43.523438 18.46875 -44.734375 C 19.707031 -45.941406 21.472656 -46.546875 23.765625 -46.546875 C 29.273438 -46.546875 33.875 -45.1875 37.5625 -42.46875 C 41.738281 -39.320312 43.828125 -34.992188 43.828125 -29.484375 Z M 30.84375 -15.609375 C 30.84375 -17.117188 29.878906 -18.359375 27.953125 -19.328125 C 26.253906 -20.234375 24.285156 -20.6875 22.046875 -20.6875 C 17.753906 -20.6875 15.609375 -19.296875 15.609375 -16.515625 C 15.609375 -15.367188 15.878906 -14.550781 16.421875 -14.0625 C 17.210938 -13.394531 18.695312 -13.0625 20.875 -13.0625 L 30.84375 -13.0625 Z M 30.84375 -15.609375 "/></g></g></g><g fill="#ffffff" fill-opacity="1"><g transform="translate(360.450355, 141.750172)"><g><path d="M 75.484375 -6.625 C 75.484375 -4.5625 74.832031 -2.957031 73.53125 -1.8125 C 72.238281 -0.664062 70.710938 -0.09375 68.953125 -0.09375 C 67.265625 -0.09375 65.753906 -0.664062 64.421875 -1.8125 C 63.085938 -2.957031 62.421875 -4.5625 62.421875 -6.625 L 62.421875 -28.3125 C 62.421875 -31.03125 61 -32.390625 58.15625 -32.390625 L 46.90625 -32.390625 L 46.90625 -6.625 C 46.90625 -4.5625 46.253906 -2.957031 44.953125 -1.8125 C 43.660156 -0.664062 42.164062 -0.09375 40.46875 -0.09375 C 38.71875 -0.09375 37.234375 -0.632812 36.015625 -1.71875 C 34.628906 -2.925781 33.9375 -4.5625 33.9375 -6.625 L 33.9375 -28.3125 C 33.9375 -31.03125 32.484375 -32.390625 29.578125 -32.390625 L 18.421875 -32.390625 L 18.421875 -6.625 C 18.421875 -4.5625 17.769531 -2.957031 16.46875 -1.8125 C 15.164062 -0.664062 13.640625 -0.09375 11.890625 -0.09375 C 10.128906 -0.09375 8.644531 -0.632812 7.4375 -1.71875 C 6.050781 -2.925781 5.359375 -4.5625 5.359375 -6.625 L 5.359375 -45.546875 L 58.15625 -45.546875 C 63.175781 -45.546875 67.316406 -43.957031 70.578125 -40.78125 C 73.847656 -37.601562 75.484375 -33.445312 75.484375 -28.3125 Z M 75.484375 -6.625 "/></g></g></g><g fill="#ffffff" fill-opacity="1"><g transform="translate(439.117742, 141.750172)"><g><path d="M 47.453125 -15.703125 L 16.6875 -15.703125 C 16.9375 -13.523438 20.054688 -12.460938 26.046875 -12.515625 C 28.222656 -12.515625 30.003906 -11.820312 31.390625 -10.4375 C 32.597656 -9.101562 33.203125 -7.53125 33.203125 -5.71875 C 33.203125 -4.019531 32.628906 -2.566406 31.484375 -1.359375 C 30.148438 -0.0859375 28.335938 0.546875 26.046875 0.546875 C 19.023438 0.546875 13.398438 -1.8125 9.171875 -6.53125 C 5.234375 -10.945312 3.265625 -16.210938 3.265625 -22.328125 C 3.265625 -29.523438 5.304688 -35.269531 9.390625 -39.5625 C 13.472656 -43.851562 19.082031 -46 26.21875 -46 C 33.050781 -46 38.375 -43.488281 42.1875 -38.46875 C 45.632812 -33.875 47.359375 -28.035156 47.359375 -20.953125 Z M 33.390625 -27.3125 C 32.910156 -28.757812 32.210938 -29.96875 31.296875 -30.9375 C 29.785156 -32.445312 27.789062 -33.175781 25.3125 -33.125 C 20.957031 -33 18.175781 -31.0625 16.96875 -27.3125 Z M 33.390625 -27.3125 "/></g></g></g><g fill="#ffffff" fill-opacity="1"><g transform="translate(488.477688, 141.750172)"><g><path d="M 90.28125 -50.453125 C 90.28125 -49.722656 90.160156 -49.023438 89.921875 -48.359375 L 75.3125 -6.4375 C 74.519531 -4.257812 73.15625 -2.597656 71.21875 -1.453125 C 69.289062 -0.304688 67.144531 0.265625 64.78125 0.265625 C 62.488281 0.265625 60.375 -0.304688 58.4375 -1.453125 C 56.5 -2.597656 55.164062 -4.257812 54.4375 -6.4375 L 51.53125 -14.875 C 50.875 -16.75 49.125 -22.523438 46.28125 -32.203125 C 45.425781 -29.179688 43.578125 -23.226562 40.734375 -14.34375 L 38.015625 -6.4375 C 37.285156 -4.257812 35.953125 -2.597656 34.015625 -1.453125 C 32.085938 -0.304688 29.941406 0.265625 27.578125 0.265625 C 25.285156 0.265625 23.203125 -0.273438 21.328125 -1.359375 C 19.265625 -2.566406 17.875 -4.257812 17.15625 -6.4375 L 2.625 -48.359375 C 2.445312 -48.898438 2.359375 -49.472656 2.359375 -50.078125 C 2.359375 -51.953125 3.113281 -53.644531 4.625 -55.15625 C 6.132812 -56.675781 7.769531 -57.4375 9.53125 -57.4375 C 12.007812 -57.4375 13.820312 -55.863281 14.96875 -52.71875 L 21.953125 -32.9375 C 24.015625 -27.125 25.921875 -20.984375 27.671875 -14.515625 C 28.640625 -17.898438 30.546875 -23.953125 33.390625 -32.671875 L 39.65625 -50.546875 C 41.039062 -54.710938 43.304688 -56.796875 46.453125 -56.796875 C 49.359375 -56.796875 51.535156 -54.710938 52.984375 -50.546875 L 59.609375 -31.84375 C 60.703125 -27.976562 62.488281 -22.203125 64.96875 -14.515625 C 66.113281 -18.503906 67.957031 -24.460938 70.5 -32.390625 L 77.671875 -52.71875 C 78.703125 -55.738281 80.578125 -57.25 83.296875 -57.25 C 85.109375 -57.25 86.722656 -56.582031 88.140625 -55.25 C 89.566406 -53.925781 90.28125 -52.328125 90.28125 -50.453125 Z M 90.28125 -50.453125 "/></g></g></g><g fill="#ffffff" fill-opacity="1"><g transform="translate(580.120223, 141.750172)"><g><path d="M 48.09375 -22.5 C 48.09375 -15.726562 46.019531 -10.191406 41.875 -5.890625 C 37.726562 -1.597656 32.238281 0.546875 25.40625 0.546875 C 18.382812 0.546875 12.816406 -1.660156 8.703125 -6.078125 C 4.773438 -10.253906 2.8125 -15.726562 2.8125 -22.5 C 2.8125 -29.03125 4.925781 -34.519531 9.15625 -38.96875 C 13.394531 -43.414062 18.8125 -45.640625 25.40625 -45.640625 C 32.0625 -45.640625 37.503906 -43.414062 41.734375 -38.96875 C 45.972656 -34.519531 48.09375 -29.03125 48.09375 -22.5 Z M 35.03125 -22.5 C 35.03125 -25.582031 34.148438 -28.046875 32.390625 -29.890625 C 30.640625 -31.742188 28.3125 -32.671875 25.40625 -32.671875 C 22.5625 -32.671875 20.242188 -31.726562 18.453125 -29.84375 C 16.671875 -27.96875 15.78125 -25.519531 15.78125 -22.5 C 15.78125 -15.789062 18.988281 -12.4375 25.40625 -12.4375 C 31.820312 -12.4375 35.03125 -15.789062 35.03125 -22.5 Z M 35.03125 -22.5 "/></g></g><g transform="translate(630.93194, 141.750172)"><g><path d="M 36.109375 -38.828125 C 36.109375 -37.140625 35.546875 -35.675781 34.421875 -34.4375 C 33.304688 -33.195312 31.875 -32.578125 30.125 -32.578125 C 29.882812 -32.578125 29.488281 -32.617188 28.9375 -32.703125 C 28.394531 -32.796875 28.003906 -32.84375 27.765625 -32.84375 C 25.585938 -32.84375 23.410156 -32.300781 21.234375 -31.21875 C 18.867188 -30 17.6875 -28.578125 17.6875 -26.953125 L 17.6875 -6.625 C 17.6875 -4.5625 17.035156 -2.957031 15.734375 -1.8125 C 14.441406 -0.664062 12.914062 -0.09375 11.15625 -0.09375 C 9.40625 -0.09375 7.925781 -0.632812 6.71875 -1.71875 C 5.320312 -2.925781 4.625 -4.5625 4.625 -6.625 L 4.625 -38.46875 C 4.625 -40.46875 5.351562 -42.070312 6.8125 -43.28125 C 8.070312 -44.425781 9.613281 -45 11.4375 -45 C 14.394531 -45 16.175781 -43.367188 16.78125 -40.109375 C 17.6875 -41.921875 19.140625 -43.367188 21.140625 -44.453125 C 23.140625 -45.546875 25.164062 -46.09375 27.21875 -46.09375 C 28.425781 -46.09375 29.609375 -45.941406 30.765625 -45.640625 C 34.328125 -44.734375 36.109375 -42.460938 36.109375 -38.828125 Z M 36.109375 -38.828125 "/></g></g></g><g fill="#ffffff" fill-opacity="1"><g transform="translate(667.770453, 141.750172)"><g><path d="M 44.28125 -6.53125 C 44.28125 -4.71875 43.597656 -3.175781 42.234375 -1.90625 C 40.878906 -0.632812 39.289062 0 37.46875 0 C 35.175781 0 33.394531 -1.054688 32.125 -3.171875 L 21.5 -20.5 C 19.257812 -18.269531 17.503906 -16.609375 16.234375 -15.515625 L 16.234375 -6.625 C 16.234375 -4.5625 15.597656 -2.957031 14.328125 -1.8125 C 13.066406 -0.664062 11.554688 -0.09375 9.796875 -0.09375 C 7.984375 -0.09375 6.441406 -0.664062 5.171875 -1.8125 C 3.898438 -2.957031 3.265625 -4.5625 3.265625 -6.625 L 3.265625 -49.453125 C 3.265625 -51.503906 3.898438 -53.101562 5.171875 -54.25 C 6.441406 -55.40625 7.984375 -55.984375 9.796875 -55.984375 C 11.554688 -55.984375 13.066406 -55.40625 14.328125 -54.25 C 15.597656 -53.101562 16.234375 -51.503906 16.234375 -49.453125 L 16.234375 -32.296875 C 18.054688 -34.898438 19.875 -37.109375 21.6875 -38.921875 L 24.59375 -41.734375 C 25.738281 -42.890625 27.28125 -43.46875 29.21875 -43.46875 C 30.789062 -43.46875 32.238281 -42.800781 33.5625 -41.46875 C 34.894531 -40.132812 35.5625 -38.59375 35.5625 -36.84375 C 35.5625 -35.144531 34.867188 -33.628906 33.484375 -32.296875 C 32.515625 -31.328125 31.726562 -30.484375 31.125 -29.765625 L 43.1875 -10.078125 C 43.914062 -8.921875 44.28125 -7.738281 44.28125 -6.53125 Z M 44.28125 -6.53125 "/></g></g></g><g fill="#ffffff" fill-opacity="1"><g transform="translate(713.319501, 141.750172)"><g><path d="M 41.921875 -38.375 C 41.921875 -36.5625 41.316406 -34.972656 40.109375 -33.609375 C 38.898438 -32.253906 37.414062 -31.578125 35.65625 -31.578125 C 34.875 -31.578125 34.03125 -31.726562 33.125 -32.03125 C 29.488281 -33.300781 26.460938 -33.9375 24.046875 -33.9375 C 18.835938 -33.9375 16.234375 -33.207031 16.234375 -31.75 C 16.234375 -30.726562 17.550781 -30.035156 20.1875 -29.671875 C 22.820312 -29.304688 24.800781 -28.972656 26.125 -28.671875 C 31.269531 -27.523438 34.84375 -26.316406 36.84375 -25.046875 C 40.039062 -22.921875 41.640625 -19.710938 41.640625 -15.421875 C 41.640625 -10.941406 40.160156 -7.34375 37.203125 -4.625 C 33.390625 -1.238281 27.796875 0.453125 20.421875 0.453125 C 16.671875 0.453125 12.585938 -0.421875 8.171875 -2.171875 C 5.265625 -3.265625 3.8125 -5.234375 3.8125 -8.078125 C 3.8125 -9.890625 4.414062 -11.472656 5.625 -12.828125 C 6.832031 -14.191406 8.34375 -14.875 10.15625 -14.875 C 10.882812 -14.875 11.703125 -14.722656 12.609375 -14.421875 C 16.242188 -13.210938 19.269531 -12.609375 21.6875 -12.609375 C 26.882812 -12.609375 29.484375 -13.304688 29.484375 -14.703125 C 29.484375 -15.722656 28.15625 -16.414062 25.5 -16.78125 C 18.0625 -17.875 12.859375 -19.238281 9.890625 -20.875 C 6.015625 -22.925781 4.078125 -26.3125 4.078125 -31.03125 C 4.078125 -36.414062 6.226562 -40.5 10.53125 -43.28125 C 14.21875 -45.695312 19.144531 -46.90625 25.3125 -46.90625 C 29.0625 -46.90625 33.144531 -46.03125 37.5625 -44.28125 C 40.46875 -43.1875 41.921875 -41.21875 41.921875 -38.375 Z M 41.921875 -38.375 "/></g></g></g></svg>